<?xml version="1.0" encoding="utf-8"?>
<!-- Generator: Adobe Illustrator 16.0.0, SVG Export Plug-In . SVG Version: 6.00 Build 0)  -->
<!DOCTYPE svg PUBLIC "-//W3C//DTD SVG 1.1//EN" "http://www.w3.org/Graphics/SVG/1.1/DTD/svg11.dtd">
<svg version="1.1" id="Layer_1" xmlns="http://www.w3.org/2000/svg" xmlns:xlink="http://www.w3.org/1999/xlink" x="0px" y="0px"
	 width="14px" height="250px" viewBox="0 0 14 250" enable-background="new 0 0 14 250" xml:space="preserve">
<g>
	<path d="M2.81,238.976c0,0.471,0.381,0.853,0.851,0.853h7.833c0.471,0,0.852-0.382,0.852-0.853H2.81z"/>
	<path fill="#F29100" d="M2.98,45.257c-0.752,0-1.363,0.61-1.363,1.363v191.164c0,0.753,0.611,1.363,1.363,1.363h9.026
		c0.753,0,1.363-0.61,1.363-1.363V46.62c0-0.753-0.61-1.363-1.363-1.363H2.98z"/>
	<rect x="3.66" y="45.257" fill="#FFFFFF" width="1.677" height="193.89"/>
	<rect x="9.732" y="45.257" fill="#FFFFFF" width="1.678" height="193.89"/>
	<path d="M3.66,239.147v7.449c0,1.129,0.915,2.044,2.044,2.044h3.747c1.129,0,2.043-0.915,2.043-2.044v-7.449H3.66z"/>
	<path d="M2.725,45.257c0-0.447,0.381-0.809,0.851-0.809h7.834c0.471,0,0.852,0.362,0.852,0.809H2.725z"/>
	<polygon points="5.337,23.799 5.337,26.013 3.66,40.631 3.66,44.449 11.41,44.449 11.438,40.655 9.732,26.013 9.732,23.799 	"/>
	<rect x="6.698" y="17.839" fill="#DDDDDD" width="1.675" height="5.96"/>
	<rect x="7.3" y="16.448" width="0.47" height="1.391"/>
	<rect x="1.617" y="1.314" width="11.752" height="43.427"/>
</g>
</svg>
